<?xml version="1.0" encoding="utf-8"?>
<!-- Generator: Adobe Illustrator 21.1.0, SVG Export Plug-In . SVG Version: 6.00 Build 0)  -->
<!DOCTYPE svg PUBLIC "-//W3C//DTD SVG 1.1//EN" "http://www.w3.org/Graphics/SVG/1.1/DTD/svg11.dtd">
<svg version="1.1" id="Layer_1" xmlns="http://www.w3.org/2000/svg" xmlns:xlink="http://www.w3.org/1999/xlink" x="0px" y="0px"
	 viewBox="0 0 288 288" style="enable-background:new 0 0 288 288;" xml:space="preserve">
<style type="text/css">
	.st0{fill:#741472;}
	.st1{opacity:0.5;fill:#B1B3B6;}
	.st2{opacity:0.5;fill:#C7C8CA;}
	.st3{opacity:0.5;fill:#77787B;}
	.st4{opacity:0.5;fill:#636466;}
	.st5{opacity:0.5;fill:#E6E7E8;}
	.st6{opacity:0.5;fill:#D1D3D4;}
	.st7{opacity:0.5;fill:#BCBEC0;}
	.st8{opacity:0.5;fill:#808285;}
	.st9{opacity:0.5;fill:#6D6E71;}
</style>
<title>Artboard 3</title>
<g>
	<circle class="st0" cx="144" cy="144" r="135"/>
	<g>
		<path class="st1" d="M221,112.1L221,112.1l50.9,30.8c-0.3-34.5-14.2-65.7-36.7-88.5L221,112.1L221,112.1z"/>
		<path class="st2" d="M175.9,221L175.9,221l-30.8,50.9c34.5-0.3,65.7-14.2,88.5-36.7L175.9,221L175.9,221z"/>
		<path class="st3" d="M175.9,67L175.9,67l57.7-14.2c-22.8-22.5-54.1-36.4-88.5-36.7L175.9,67L175.9,67z"/>
		<path class="st4" d="M221,175.9L221,175.9L221,175.9l14.2,57.7c22.5-22.8,36.4-54.1,36.7-88.5L221,175.9z"/>
		<path class="st2" d="M112.1,67L112.1,67l30.8-50.9c-34.5,0.3-65.7,14.2-88.5,36.7L112.1,67L112.1,67z"/>
		<path class="st1" d="M67,175.9L67,175.9l-50.9-30.8c0.3,34.5,14.2,65.7,36.7,88.5L67,175.9L67,175.9z"/>
		<path class="st4" d="M67,112.1L67,112.1L52.8,54.4c-22.5,22.8-36.4,54.1-36.7,88.5L67,112.1L67,112.1z"/>
		<path class="st3" d="M112.1,221L112.1,221l-57.7,14.2c22.8,22.5,54.1,36.4,88.5,36.7L112.1,221L112.1,221z"/>
		<polygon class="st5" points="221,112.1 221,112.1 175.9,67 175.9,67 175.9,67 112.1,67 112.1,67 112.1,67 67,112.1 67,112.1 
			67,112.1 67,175.9 67,175.9 67,175.9 112.1,221 112.1,221 112.1,221 175.9,221 175.9,221 175.9,221 221,175.9 221,175.9 
			221,175.9 221,112.1 		"/>
		<path class="st6" d="M112.1,221l30.8,50.9c0.4,0,0.7,0,1.1,0c0.4,0,0.7,0,1.1,0l30.8-50.9H112.1z"/>
		<path class="st6" d="M175.9,67l-30.8-50.9c-0.4,0-0.7,0-1.1,0c-0.4,0-0.7,0-1.1,0L112.1,67H175.9z"/>
		<path class="st7" d="M67,112.1l-50.9,30.8c0,0.4,0,0.7,0,1.1s0,0.7,0,1.1L67,175.9V112.1z"/>
		<path class="st7" d="M221,175.9l50.9-30.8c0-0.4,0-0.7,0-1.1s0-0.7,0-1.1L221,112.1V175.9z"/>
		<path class="st8" d="M112.1,67L54.4,52.8c-0.5,0.5-1,1-1.5,1.5L67,112.1L112.1,67z"/>
		<path class="st8" d="M175.9,221l57.7,14.2c0.5-0.5,1-1,1.5-1.5L221,175.9L175.9,221z"/>
		<path class="st9" d="M233.6,52.8L175.9,67l45.1,45.1l14.2-57.7"/>
		<path class="st9" d="M67,175.9l-14.2,57.7c0.5,0.5,1,1,1.5,1.5l57.7-14.2L67,175.9z"/>
	</g>
</g>
</svg>
