<svg id="Layer_1" data-name="Layer 1" xmlns="http://www.w3.org/2000/svg" viewBox="0 0 288 288"><defs><style>.cls-1{fill:#9b13ba;}.cls-2{fill:#b1b3b6;}.cls-10,.cls-2,.cls-3,.cls-4,.cls-5,.cls-6,.cls-7,.cls-8,.cls-9{opacity:0.5;isolation:isolate;}.cls-3{fill:#c7c8ca;}.cls-4{fill:#77787b;}.cls-5{fill:#636466;}.cls-6{fill:#e6e7e8;}.cls-7{fill:#d1d3d4;}.cls-8{fill:#bcbec0;}.cls-9{fill:#808285;}.cls-10{fill:#6d6e71;}</style></defs><title>Artboard 1</title><circle class="cls-1" cx="144" cy="144" r="135"/><path class="cls-2" d="M221,112.1h0l50.9,30.8a127.09,127.09,0,0,0-36.7-88.5L221,112.1Z"/><path class="cls-3" d="M175.9,221h0l-30.8,50.9a127.09,127.09,0,0,0,88.5-36.7L175.9,221Z"/><path class="cls-4" d="M175.9,67h0l57.7-14.2a127.28,127.28,0,0,0-88.5-36.7L175.9,67Z"/><path class="cls-5" d="M221,175.9h0l14.2,57.7a127.28,127.28,0,0,0,36.7-88.5Z"/><path class="cls-3" d="M112.1,67h0l30.8-50.9A127.09,127.09,0,0,0,54.4,52.8L112.1,67Z"/><path class="cls-2" d="M67,175.9h0L16.1,145.1a127.09,127.09,0,0,0,36.7,88.5L67,175.9Z"/><path class="cls-5" d="M67,112.1h0L52.8,54.4a127.28,127.28,0,0,0-36.7,88.5L67,112.1Z"/><path class="cls-4" d="M112.1,221h0L54.4,235.2a127.28,127.28,0,0,0,88.5,36.7L112.1,221Z"/><polygon class="cls-6" points="221 112.1 221 112.1 175.9 67 175.9 67 175.9 67 112.1 67 112.1 67 112.1 67 67 112.1 67 112.1 67 112.1 67 175.9 67 175.9 67 175.9 112.1 221 112.1 221 112.1 221 175.9 221 175.9 221 175.9 221 221 175.9 221 175.9 221 175.9 221 112.1"/><path class="cls-7" d="M112.1,221l30.8,50.9h2.2L175.9,221Z"/><path class="cls-7" d="M175.9,67,145.1,16.1h-2.2L112.1,67Z"/><path class="cls-8" d="M67,112.1,16.1,142.9v2.2L67,175.9Z"/><path class="cls-8" d="M221,175.9l50.9-30.8v-2.2L221,112.1Z"/><path class="cls-9" d="M112.1,67,54.4,52.8l-1.5,1.5L67,112.1Z"/><path class="cls-9" d="M175.9,221l57.7,14.2,1.5-1.5L221,175.9Z"/><path class="cls-10" d="M233.6,52.8,175.9,67,221,112.1l14.2-57.7"/><path class="cls-10" d="M67,175.9,52.8,233.6l1.5,1.5L112,220.9Z"/></svg>