<?xml version="1.0" encoding="utf-8"?>
<!-- Generator: Adobe Illustrator 21.1.0, SVG Export Plug-In . SVG Version: 6.00 Build 0)  -->
<!DOCTYPE svg PUBLIC "-//W3C//DTD SVG 1.1//EN" "http://www.w3.org/Graphics/SVG/1.1/DTD/svg11.dtd">
<svg version="1.1" id="Layer_1" xmlns="http://www.w3.org/2000/svg" xmlns:xlink="http://www.w3.org/1999/xlink" x="0px" y="0px"
	 viewBox="0 0 288 288" style="enable-background:new 0 0 288 288;" xml:space="preserve">
<style type="text/css">
	.st0{fill:#0A6043;}
	.st1{opacity:0.5;fill:#B1B3B6;enable-background:new    ;}
	.st2{opacity:0.5;fill:#C7C8CA;enable-background:new    ;}
	.st3{opacity:0.5;fill:#7F8083;enable-background:new    ;}
	.st4{opacity:0.5;fill:#636466;enable-background:new    ;}
	.st5{opacity:0.5;fill:#77787B;enable-background:new    ;}
	.st6{opacity:0.5;fill:#E6E7E8;enable-background:new    ;}
	.st7{opacity:0.5;fill:#D1D3D4;enable-background:new    ;}
	.st8{opacity:0.5;fill:#BCBEC0;enable-background:new    ;}
	.st9{opacity:0.5;fill:#808285;enable-background:new    ;}
	.st10{opacity:0.5;fill:#6D6E71;enable-background:new    ;}
</style>
<title>Artboard 1</title>
<ellipse transform="matrix(0.9744 -0.225 0.225 0.9744 -28.7022 36.0837)" class="st0" cx="144" cy="144" rx="135" ry="135"/>
<path class="st1" d="M211.9,95.6L211.9,95.6l56.5,18.6c-7.7-32.3-27.6-60.2-55.7-78L211.9,95.6z"/>
<path class="st2" d="M192.4,211.9L192.4,211.9l-18.6,56.5c32.3-7.7,60.2-27.6,78-55.7L192.4,211.9z"/>
<path class="st3" d="M157.8,61.8L157.8,61.8l53-26.8c-28.2-17.4-62.1-23.1-94.5-15.9L157.8,61.8z"/>
<path class="st4" d="M226.2,157.8L226.2,157.8l26.8,53c17.4-28.2,23.1-62.1,15.9-94.5L226.2,157.8z"/>
<path class="st2" d="M95.6,76.1L95.6,76.1l18.6-56.5c-32.3,7.7-60.2,27.6-78,55.7L95.6,76.1z"/>
<path class="st1" d="M76.1,192.4L76.1,192.4l-56.5-18.6c7.7,32.3,27.6,60.2,55.7,78L76.1,192.4z"/>
<path class="st4" d="M61.8,130.2L61.8,130.2L35,77.2c-17.4,28.2-23.1,62.1-15.9,94.5L61.8,130.2z"/>
<path class="st5" d="M130.2,226.2L130.2,226.2l-53,26.8c28.2,17.4,62.1,23.1,94.5,15.9L130.2,226.2z"/>
<polygon class="st6" points="211.9,95.6 211.9,95.6 157.8,61.8 157.8,61.8 157.8,61.8 95.6,76.1 95.6,76.1 95.6,76.1 61.8,130.2 
	61.8,130.2 61.8,130.2 76.1,192.4 76.1,192.4 76.1,192.4 130.2,226.2 130.2,226.2 130.2,226.2 192.4,211.9 192.4,211.9 192.4,211.9 
	226.2,157.8 226.2,157.8 226.2,157.8 "/>
<path class="st7" d="M130.2,226.2l41.5,42.7l2.1-0.5l18.6-56.5L130.2,226.2z"/>
<path class="st7" d="M157.8,61.8l-41.5-42.7l-2.1,0.5L95.6,76.1L157.8,61.8z"/>
<path class="st8" d="M61.8,130.2l-42.7,41.5l0.5,2.1l56.5,18.6L61.8,130.2z"/>
<path class="st8" d="M226.2,157.8l42.7-41.5l-0.5-2.1l-56.5-18.6L226.2,157.8z"/>
<path class="st9" d="M95.6,76.1l-59.4-0.9l-1.1,1.8l26.7,53.1L95.6,76.1z"/>
<path class="st9" d="M192.4,211.9l59.4,0.9l1.1-1.8l-26.7-53.1L192.4,211.9z"/>
<path class="st10" d="M210.8,35l-53,26.8l54.1,33.8l0.9-59.4"/>
<path class="st10" d="M76.1,192.4l-0.9,59.4l1.8,1.1l53-26.8L76.1,192.4z"/>
</svg>
