<?xml version="1.0" encoding="utf-8"?>
<!-- Generator: Adobe Illustrator 21.1.0, SVG Export Plug-In . SVG Version: 6.00 Build 0)  -->
<!DOCTYPE svg PUBLIC "-//W3C//DTD SVG 1.1//EN" "http://www.w3.org/Graphics/SVG/1.1/DTD/svg11.dtd">
<svg version="1.1" id="Layer_1" xmlns="http://www.w3.org/2000/svg" xmlns:xlink="http://www.w3.org/1999/xlink" x="0px" y="0px"
	 viewBox="0 0 288 288" style="enable-background:new 0 0 288 288;" xml:space="preserve">
<style type="text/css">
	.st0{fill:#0995BA;}
	.st1{opacity:0.5;fill:#95989A;enable-background:new    ;}
	.st2{opacity:0.5;fill:#C7C8CA;enable-background:new    ;}
	.st3{opacity:0.5;fill:#414345;enable-background:new    ;}
	.st4{opacity:0.5;fill:#636466;enable-background:new    ;}
	.st5{opacity:0.5;fill:#B1B3B6;enable-background:new    ;}
	.st6{opacity:0.5;fill:#797A7C;enable-background:new    ;}
	.st7{opacity:0.5;fill:#E6E7E8;enable-background:new    ;}
	.st8{opacity:0.5;fill:#D1D3D4;enable-background:new    ;}
	.st9{opacity:0.5;fill:#BCBEC0;enable-background:new    ;}
	.st10{opacity:0.5;fill:#808285;enable-background:new    ;}
	.st11{opacity:0.5;fill:#6D6E71;enable-background:new    ;}
</style>
<title>Artboard 1</title>
<ellipse transform="matrix(0.8988 -0.4384 0.4384 0.8988 -48.5518 77.6991)" class="st0" cx="144" cy="144" rx="135" ry="135"/>
<path class="st1" d="M199.2,81.6L199.2,81.6l59.3,5.4c-14.7-29.7-40.5-52.5-71.8-63.5L199.2,81.6z"/>
<path class="st2" d="M206.4,199.2L206.4,199.2l-5.4,59.3c29.7-14.7,52.5-40.5,63.5-71.8L206.4,199.2z"/>
<path class="st3" d="M138.9,60.8L138.9,60.8l45.6-38.1c-31.4-10.6-65.7-8.5-95.6,5.8L138.9,60.8z"/>
<path class="st4" d="M227.2,138.9L227.2,138.9l38.1,45.6c10.6-31.4,8.5-65.7-5.8-95.6L227.2,138.9z"/>
<path class="st2" d="M81.6,88.8L81.6,88.8l5.4-59.3C57.2,44.3,34.5,70,23.5,101.3L81.6,88.8z"/>
<path class="st5" d="M88.8,206.4L88.8,206.4l-59.3-5.4c14.7,29.7,40.5,52.5,71.8,63.5L88.8,206.4z"/>
<path class="st4" d="M60.8,149.1L60.8,149.1l-38.1-45.6c-10.6,31.4-8.5,65.7,5.8,95.6L60.8,149.1z"/>
<path class="st6" d="M149.1,227.2L149.1,227.2l-45.6,38.1c31.4,10.6,65.7,8.5,95.6-5.8L149.1,227.2z"/>
<polygon class="st7" points="199.2,81.6 199.2,81.6 138.9,60.8 138.9,60.8 138.9,60.8 81.6,88.8 81.6,88.8 81.6,88.8 60.8,149.1 
	60.8,149.1 60.8,149.1 88.8,206.4 88.8,206.4 88.8,206.4 149.1,227.2 149.1,227.2 149.1,227.2 206.4,199.2 206.4,199.2 206.4,199.2 
	227.2,138.9 227.2,138.9 227.2,138.9 "/>
<path class="st8" d="M149.1,227.2l50,32.2l2-1l5.4-59.3L149.1,227.2z"/>
<path class="st8" d="M138.9,60.8l-50-32.2l-2,1l-5.4,59.3L138.9,60.8z"/>
<path class="st9" d="M60.8,149.1l-32.2,50l1,2l59.3,5.4L60.8,149.1z"/>
<path class="st9" d="M227.2,138.9l32.2-50l-1-2l-59.3-5.4L227.2,138.9z"/>
<path class="st10" d="M81.6,88.8l-58.1,12.5l-0.7,2l38,45.8L81.6,88.8z"/>
<path class="st10" d="M206.4,199.2l58.1-12.5l0.7-2l-38-45.8L206.4,199.2z"/>
<path class="st11" d="M184.6,22.8l-45.6,38.1l60.3,20.8l-12.5-58.1"/>
<path class="st11" d="M88.8,206.4l12.5,58.1l2,0.7l45.6-38.1L88.8,206.4z"/>
</svg>
