<svg id="Layer_1" data-name="Layer 1" xmlns="http://www.w3.org/2000/svg" xmlns:xlink="http://www.w3.org/1999/xlink" viewBox="0 0 511.92 512"><defs><style>.cls-1{fill:none;}.cls-2{clip-path:url(#clip-path);}.cls-3{fill:#30c2df;}</style><clipPath id="clip-path"><rect class="cls-1" x="-0.04" width="512" height="512"/></clipPath></defs><title>Artboard 1</title><g class="cls-2"><path class="cls-3" d="M256,0C114.59,0,0,114.63,0,256,0,369.13,73.3,465.06,175,498.91c12.8,2.34,17.47-5.56,17.47-12.31,0-6.09-.23-26.28-.36-47.66-71.19,15.47-86.23-30.19-86.23-30.19-11.66-29.56-28.42-37.44-28.42-37.44-23.27-15.87,1.76-15.56,1.76-15.56,25.7,1.78,39.24,26.38,39.24,26.38,22.84,39.13,59.94,27.81,74.5,21.25,2.33-16.5,9-27.81,16.25-34.19-56.83-6.47-116.61-28.44-116.61-126.53,0-28,10-50.78,26.33-68.7-2.61-6.5-11.42-32.55,2.53-67.78,0,0,21.47-6.88,70.41,26.25a242.34,242.34,0,0,1,128.16,0C368.9,99.3,390.4,106.2,390.4,106.2c14,35.27,5.19,61.28,2.56,67.75,16.41,17.92,26.31,40.73,26.31,68.7,0,98.34-59.87,120-116.91,126.34,9.22,7.94,17.38,23.5,17.38,47.38,0,34.22-.34,61.81-.34,70.25,0,6.81,4.66,14.78,17.62,12.28C438.68,465,512,369.06,512,256,512,114.63,397.34,0,256,0Z"/></g></svg>