<?xml version="1.0" encoding="utf-8"?>
<!-- Generator: Adobe Illustrator 21.1.0, SVG Export Plug-In . SVG Version: 6.00 Build 0)  -->
<!DOCTYPE svg PUBLIC "-//W3C//DTD SVG 1.1//EN" "http://www.w3.org/Graphics/SVG/1.1/DTD/svg11.dtd">
<svg version="1.1" id="Layer_1" xmlns="http://www.w3.org/2000/svg" xmlns:xlink="http://www.w3.org/1999/xlink" x="0px" y="0px"
	 viewBox="0 0 511.9 512" style="enable-background:new 0 0 511.9 512;" xml:space="preserve">
<style type="text/css">
	.st0{clip-path:url(#SVGID_2_);fill:#DF1A5B;}
</style>
<g>
	<defs>
		<rect id="SVGID_1_" x="0" width="512" height="512"/>
	</defs>
	<clipPath id="SVGID_2_">
		<use xlink:href="#SVGID_1_"  style="overflow:visible;"/>
	</clipPath>
	<path class="st0" d="M256,0C114.6,0,0,114.6,0,256C0,369.1,73.3,465.1,175,498.9c12.8,2.3,17.5-5.6,17.5-12.3
		c0-6.1-0.2-26.3-0.4-47.7c-71.2,15.5-86.2-30.2-86.2-30.2c-11.7-29.6-28.4-37.4-28.4-37.4c-23.3-15.9,1.8-15.6,1.8-15.6
		c25.7,1.8,39.2,26.4,39.2,26.4c22.8,39.1,59.9,27.8,74.5,21.2c2.3-16.5,9-27.8,16.2-34.2c-56.8-6.5-116.6-28.4-116.6-126.5
		c0-28,10-50.8,26.3-68.7c-2.6-6.5-11.4-32.5,2.5-67.8c0,0,21.5-6.9,70.4,26.2c20.4-5.7,42.3-8.5,64.1-8.6
		c21.8,0.1,43.7,2.9,64.1,8.6c48.8-33.2,70.3-26.2,70.3-26.2c14,35.3,5.2,61.3,2.6,67.8c16.4,17.9,26.3,40.7,26.3,68.7
		c0,98.3-59.9,120-116.9,126.3c9.2,7.9,17.4,23.5,17.4,47.4c0,34.2-0.3,61.8-0.3,70.2c0,6.8,4.7,14.8,17.6,12.3
		C438.7,465,512,369.1,512,256C512,114.6,397.3,0,256,0z"/>
</g>
</svg>
